PathFileType  4	(X/Y/Z) C:\Users\antoi\Documents\MyRepositories\mobilecap\ResultsAnalysis
DataRate	CameraRate	NumFrames	NumMarkers	Units	OrigDataRate	OrigDataStartFrame	OrigNumFrames
100.0	100.0	6	51	mm	100.0	249	284
Frame#	Time	r_knee			r_shank_antsup			r_ankle			r_calc			r_5meta			r_toe			L_knee			L_shank_antsup			L_ankle			L_calc			L_5meta			L_toe			r_sh2			r_sh3			r_sh4			L_sh2			L_sh3			r_thigh1			r_thigh2			r_thigh3			r_thigh4			r_thigh5			L_thigh1			L_thigh2			L_thigh3			L_thigh4			r.ASIS			r.PSIS			L.ASIS			L.PSIS			C7			R_Shoulder			L_Shoulder			R_Sternum			L_Sternum			R_humerus			R_elbow_med			R_elbow_lat			R_forearm			R_wrist_radius			R_wrist_ulna			L_humerus			L_elbow_med			L_elbow_lat			L_forearm			L_wrist_radius			L_wrist_ulna			R_HJC			L_HJC			R_HJC_reg			L_HJC_reg			
		X1	Y1	Z1	X2	Y2	Z2	X3	Y3	Z3	X4	Y4	Z4	X5	Y5	Z5	X6	Y6	Z6	X7	Y7	Z7	X8	Y8	Z8	X9	Y9	Z9	X10	Y10	Z10	X11	Y11	Z11	X12	Y12	Z12	X13	Y13	Z13	X14	Y14	Z14	X15	Y15	Z15	X16	Y16	Z16	X17	Y17	Z17	X18	Y18	Z18	X19	Y19	Z19	X20	Y20	Z20	X21	Y21	Z21	X22	Y22	Z22	X23	Y23	Z23	X24	Y24	Z24	X25	Y25	Z25	X26	Y26	Z26	X27	Y27	Z27	X28	Y28	Z28	X29	Y29	Z29	X30	Y30	Z30	X31	Y31	Z31	X32	Y32	Z32	X33	Y33	Z33	X34	Y34	Z34	X35	Y35	Z35	X36	Y36	Z36	X37	Y37	Z37	X38	Y38	Z38	X39	Y39	Z39	X40	Y40	Z40	X41	Y41	Z41	X42	Y42	Z42	X43	Y43	Z43	X44	Y44	Z44	X45	Y45	Z45	X46	Y46	Z46	X47	Y47	Z47	X48	Y48	Z48	X49	Y49	Z49	X50	Y50	Z50	X51	Y51	Z51	

249	2.48000000	-150.46033	998.30093	-302.51658	-144.85863	849.88966	-291.32669	-260.50224	494.37558	-271.50508	-310.86217	489.09433	-342.72443	-159.06293	382.43705	-235.19539	-104.70575	398.37122	-276.05493	-191.59975	1006.98527	-738.94405	-154.84022	812.98979	-766.87463	-243.42419	512.75247	-755.08240	-253.49343	504.15843	-667.97367	-188.72266	378.19841	-840.10890	-114.19923	392.75936	-828.00104	-163.00906	737.12460	-285.33580	-213.61134	860.14286	-264.33822	-234.26168	751.18983	-247.76492	-241.08314	828.14525	-773.17546	-247.70684	708.61567	-767.98464	-104.82949	1294.69704	-303.01322	-94.73932	1184.34987	-293.91197	-156.34978	1156.07322	-289.06235	-211.67415	1283.81210	-339.01413	-203.98356	1167.10608	-316.61922	-123.45304	1306.63803	-737.32845	-127.65433	1172.87068	-750.16661	-228.37082	1309.64086	-702.68362	-231.31637	1173.42780	-723.82232	-46.44036	1578.15884	-380.41706	-232.16601	1606.74736	-454.32243	-73.13993	1575.99572	-647.38416	-241.22686	1610.82765	-545.92178	-157.88012	2091.92078	-529.12471	-67.40910	2090.71045	-366.19998	-95.73895	2054.30346	-697.74325	-10.77741	2021.02097	-496.79076	-16.02411	2012.18806	-548.77073	-202.66902	1957.51423	-193.09642	-352.04486	1896.24043	-187.33554	-319.42113	1954.58246	-132.63314	-200.05246	1792.37756	-53.16954	-150.81645	1726.82458	-29.55104	-171.46277	1728.06568	1.03661	-125.98942	1804.88208	-829.61731	-238.79583	1726.85716	-827.62154	-191.32639	1747.56495	-896.44432	-9.79466	1671.53777	-835.86777	43.71397	1649.11423	-797.69953	43.47275	1635.64185	-830.06753	-124.43821	1482.15670	-410.36650	-147.21751	1484.91534	-606.50347	-115.56352	1489.64388	-415.87470	-132.97998	1497.48702	-591.92516	
250	2.49000000	-147.62884	994.69799	-300.48050	-141.94427	846.25547	-289.10513	-258.43723	491.10443	-268.99421	-309.17504	484.70752	-339.87186	-155.78114	380.67000	-232.25910	-101.76497	396.88798	-273.39755	-189.09418	1003.81914	-738.12344	-151.78420	809.34903	-765.41382	-241.35967	509.66051	-754.67317	-253.13785	499.76984	-667.87483	-185.31333	377.09776	-841.05601	-111.00794	390.91384	-826.99086	-160.34855	733.56654	-283.16665	-210.34678	856.63355	-261.60588	-231.40137	747.91782	-245.02128	-237.89865	824.90652	-772.77411	-244.92949	705.56855	-767.44832	-104.62551	1291.51058	-300.67670	-94.42559	1181.29855	-292.07563	-155.13741	1152.54427	-286.97315	-211.21076	1279.91001	-337.25422	-202.97500	1163.30043	-314.31289	-123.70578	1303.53682	-735.91248	-127.18787	1169.80733	-749.20438	-228.15113	1305.75722	-699.95109	-230.31460	1169.43304	-721.24369	-47.55009	1574.90723	-377.80772	-232.89586	1603.29209	-452.63951	-72.92039	1572.27730	-644.43658	-241.70637	1607.43180	-544.43075	-155.60277	2088.51347	-528.23751	-66.05080	2085.70550	-363.91904	-93.49127	2049.78626	-696.75392	-8.80092	2016.22277	-495.25641	-13.32040	2007.64396	-547.45538	-205.31156	1948.85664	-196.45572	-355.77807	1888.63129	-195.74274	-323.21296	1945.00798	-138.07869	-205.14299	1780.06235	-63.09884	-156.32560	1713.60182	-41.41932	-177.22037	1714.33765	-10.49383	-125.20138	1798.53327	-824.74232	-239.09097	1722.09734	-822.50462	-190.83553	1740.99581	-891.41929	-10.61561	1664.29922	-827.71708	42.28617	1642.24101	-788.72145	42.40299	1628.22093	-821.00443	-125.50192	1478.86142	-407.86894	-147.21393	1481.29245	-604.13275	-116.19906	1486.16702	-413.46872	-133.07254	1494.09462	-589.26053	
251	2.50000000	-144.66156	990.11760	-298.38203	-139.13038	841.70601	-286.56754	-256.31866	487.03564	-266.13629	-307.74669	479.96488	-336.58580	-152.78082	377.44968	-229.87491	-99.28234	393.91185	-271.37209	-186.25817	999.60995	-737.55996	-148.61244	804.69386	-764.27973	-239.37453	505.61337	-754.35778	-252.83838	494.67398	-668.00837	-181.90764	374.50735	-841.64174	-107.87734	387.83486	-825.72394	-157.65446	729.05662	-280.73290	-207.34567	852.21935	-258.91049	-229.10100	743.55029	-242.40094	-234.60467	820.68580	-772.63416	-241.97831	702.08743	-767.34739	-104.24513	1287.53472	-298.38702	-92.35058	1177.22146	-289.92743	-153.50162	1148.04747	-284.58781	-210.64810	1275.11369	-334.85451	-201.61876	1158.49164	-311.70251	-123.19536	1299.26584	-734.26176	-125.92652	1165.66623	-747.99857	-227.39783	1300.97877	-697.90547	-228.99881	1164.48947	-719.31454	-48.74855	1570.42763	-375.13771	-233.66719	1598.59855	-450.75259	-73.05708	1567.13702	-642.32854	-242.24631	1603.01073	-542.90064	-153.44750	2084.09894	-527.34188	-64.85523	2079.53411	-361.67558	-91.31195	2044.39044	-695.80015	-6.56065	2010.23905	-493.27992	-9.98607	2002.25834	-546.10768	-208.00978	1939.30448	-199.62331	-359.40094	1879.74578	-203.85910	-326.88243	1934.43966	-143.49225	-209.30173	1767.44394	-72.92199	-160.65175	1700.24213	-53.44611	-181.92876	1700.55896	-21.80859	-124.29227	1791.33239	-820.19965	-239.04035	1716.31116	-817.51872	-190.11131	1733.63791	-886.57547	-11.16270	1656.40463	-820.12069	41.28888	1634.69547	-780.02429	41.28784	1620.38353	-812.14972	-126.67152	1474.34119	-405.51460	-147.64328	1476.41131	-601.86426	-116.96199	1480.79172	-411.36047	-133.35879	1489.22571	-587.48478	
252	2.51000000	-141.59652	984.65438	-295.88114	-136.34165	836.26890	-283.84426	-254.18973	482.01939	-263.30723	-306.66710	474.50150	-332.94080	-149.83945	373.34290	-227.61185	-97.12810	389.70602	-269.88434	-182.97410	994.35168	-737.20780	-145.29875	799.14022	-763.66121	-237.43044	500.72147	-754.33833	-252.46909	488.78185	-668.16026	-178.50692	370.65738	-841.95212	-104.84257	383.70916	-824.41749	-155.05240	723.66233	-278.06861	-204.50833	846.88744	-256.21295	-226.71819	738.19242	-239.89413	-231.11985	815.50898	-772.69072	-239.03778	697.52038	-767.53068	-103.68753	1282.68524	-296.10166	-89.91008	1172.10384	-287.45034	-151.61942	1142.57598	-282.06868	-209.97142	1269.23914	-332.02830	-199.98025	1152.68308	-308.87289	-121.83105	1294.03854	-732.80161	-123.89979	1160.46772	-746.68335	-226.15852	1295.20380	-696.41051	-227.03005	1158.71726	-718.17903	-50.03556	1564.92377	-372.62622	-234.53664	1593.02004	-449.08965	-73.36024	1560.71062	-640.60692	-242.78640	1597.55293	-541.43558	-151.39505	2078.64337	-526.60154	-63.94421	2072.34500	-359.63199	-89.06502	2038.10526	-694.97441	-4.83411	2003.21501	-491.27021	-7.48736	1995.73030	-544.75480	-210.79566	1928.79060	-202.70886	-362.38384	1869.57341	-211.21349	-330.52728	1922.79690	-148.86685	-212.55251	1754.40048	-82.51087	-163.95225	1686.63520	-65.42508	-185.96071	1685.41890	-34.08332	-123.29714	1783.35349	-816.00214	-238.76780	1709.56320	-812.86712	-189.20785	1725.40229	-881.80776	-11.63847	1647.86689	-812.96938	40.60885	1626.42752	-771.63077	40.49325	1611.89944	-803.46082	-128.00348	1468.84208	-403.26543	-148.32270	1470.36460	-599.68760	-118.04656	1474.42596	-409.34424	-133.82889	1483.09882	-585.98719	
253	2.52000000	-138.51244	978.31822	-293.13174	-133.49783	829.82302	-281.13825	-252.18979	475.99980	-260.56524	-305.97161	468.04030	-328.88172	-146.88762	368.64209	-225.29086	-95.15263	384.53608	-268.75198	-179.20949	988.01657	-737.03585	-141.79817	792.60958	-763.22245	-235.52368	494.89909	-754.51216	-252.03096	481.94130	-668.29858	-175.10486	365.83810	-842.14555	-101.85731	378.73374	-823.23862	-152.60517	717.28251	-275.41125	-201.55945	840.64620	-253.46132	-223.98027	732.03532	-237.27434	-227.40170	809.38047	-772.89747	-236.24111	691.20130	-767.77481	-102.88298	1276.77770	-293.67818	-88.70761	1166.07893	-284.91041	-149.59842	1136.10089	-279.40596	-209.26323	1262.25820	-328.90085	-198.15827	1145.93477	-305.77670	-119.70494	1287.90071	-731.42693	-121.05010	1154.33394	-745.54932	-224.37621	1288.38336	-695.53208	-224.11153	1152.09755	-717.79267	-51.42135	1558.59026	-370.14964	-235.57764	1586.85781	-447.95263	-73.36211	1553.58822	-638.36417	-243.33805	1591.07388	-540.05070	-149.43237	2072.10494	-526.01552	-63.33590	2064.25779	-357.79119	-86.56045	2030.87608	-694.07530	-3.80170	1995.30096	-489.55697	-6.15882	1987.91737	-543.34743	-213.56495	1917.26358	-205.62890	-364.74855	1858.21776	-217.88008	-333.92372	1909.93659	-153.73334	-214.93408	1740.70119	-91.95273	-166.27422	1672.65262	-77.13727	-189.06840	1668.89383	-47.17691	-122.18909	1774.71770	-812.11587	-238.21218	1701.94038	-808.54412	-188.05624	1716.24769	-877.20262	-11.77296	1638.59686	-805.70668	40.16151	1617.44160	-763.50466	40.83372	1602.44384	-795.14656	-129.49766	1462.58492	-400.98743	-148.75159	1463.52228	-597.52012	-119.44878	1468.13216	-406.91279	-134.34726	1476.22367	-583.74526	
254	2.53000000	-135.39118	970.97474	-290.52958	-130.58822	822.28036	-278.53562	-250.42802	469.13023	-257.58311	-305.57499	460.53354	-324.49160	-143.96863	363.09390	-222.95931	-93.24716	378.62427	-267.74139	-174.99992	980.62697	-736.97382	-138.07225	785.00566	-762.62805	-233.71862	487.97553	-754.45433	-251.55255	474.11283	-668.36491	-171.75580	360.08749	-842.26104	-98.85087	372.97141	-822.17862	-150.23629	709.80319	-272.89467	-198.42345	833.46612	-250.55035	-221.15998	724.89444	-234.44945	-223.46006	802.28942	-773.30300	-233.34191	683.48913	-768.04685	-101.87938	1269.54445	-291.09279	-87.83462	1159.14822	-282.42702	-147.48834	1128.60332	-276.44012	-208.65718	1254.27503	-325.38863	-196.26309	1138.17912	-302.46385	-117.02345	1280.74933	-729.60787	-117.38506	1147.32310	-744.49385	-222.07882	1280.56406	-695.16632	-220.59653	1144.49605	-717.93969	-52.89838	1551.37441	-367.53105	-236.75746	1579.98334	-447.05781	-73.22579	1545.52250	-635.72550	-243.93287	1583.57985	-538.65592	-147.56094	2064.46947	-525.59492	-62.98707	2055.27440	-356.12383	-83.80814	2022.57051	-693.01895	-2.93942	1986.45279	-487.96118	-5.03562	1979.05015	-541.67092	-216.19477	1905.02213	-208.19421	-366.81258	1845.67608	-224.30962	-336.75171	1895.91502	-157.81511	-216.56583	1726.24475	-101.17395	-167.44511	1658.19715	-88.41312	-190.65988	1652.45423	-59.44910	-120.92878	1765.36194	-808.59993	-237.16889	1693.41719	-804.52679	-186.63223	1706.12330	-872.91705	-11.37275	1628.67441	-798.34246	40.01541	1607.77758	-755.58787	42.14233	1592.02590	-787.20690	-131.18059	1455.50475	-398.53909	-149.10217	1455.72968	-595.19968	-121.11465	1461.46555	-404.04943	-134.96781	1468.40606	-580.92944	
